<?xml version="1.0" standalone="no"?><!DOCTYPE svg PUBLIC "-//W3C//DTD SVG 1.1//EN" "http://www.w3.org/Graphics/SVG/1.1/DTD/svg11.dtd"><svg class="icon" width="200px" height="200.00px" viewBox="0 0 1024 1024" version="1.1" xmlns="http://www.w3.org/2000/svg"><path fill="#333333" d="M749.1 728.6h-40.9 16.2c13.8-0.8 24.7-12.2 24.7-26.2v26.2zM157.2 729h40.9-16.2c-13.8-0.8-24.7-12.2-24.7-26.2V729zM749.1 359.8h-40.9 16.2c13.8 0.8 24.7 12.2 24.7 26.2v-26.2zM866.8 244.4h-40.9 16.2c13.8 0.8 24.7 12.2 24.7 26.2v-26.2zM157.2 360.3h40.9-16.2c-13.8 0.8-24.7 12.2-24.7 26.2v-26.2zM520.9 740.4c16 16 16 41.9 0 57.9L409.1 910.1c-16 16-41.9 16-57.9 0s-16-41.9 0-57.9L463 740.4c16-16 41.9-16 57.9 0zM354.6 544.4c0 22.6-18.3 41-41 41h-38.1c-22.6 0-41-18.3-41-41 0-22.6 18.3-41 41-41h38.1c22.6 0 41 18.3 41 41zM512.9 544.4c0 22.6-18.3 41-41 41h-38.1c-22.6 0-41-18.3-41-41 0-22.6 18.3-41 41-41h38.1c22.6 0 41 18.3 41 41zM671.2 544.4c0 22.6-18.3 41-41 41h-38.1c-22.6 0-41-18.3-41-41 0-22.6 18.3-41 41-41h38.1c22.6 0 41 18.3 41 41zM707.5 810.3h54.1v-0.1h0.5c37.6 0 68.1-30.5 68.1-68.1v-54.5h0.2V401h-0.2v-53.1-1.4c0-37.2-29.9-67.5-67-68.1H139.4c-35.6 2.2-63.8 31.8-63.8 67.9v54.5h-0.3v287.5h0.3v54.5c0 34.2 25.2 62.5 58.1 67.4h160.6c22.6 0 41-18.3 41-41 0-22.6-18.3-41-41-41H157.2V360.3h591.3v368.1H491.4c-22.6 0-41 18.3-41 41 0 22.6 18.3 41 41 41l216.1-0.1zM887 163H314.5c-22.6 0-41 18.3-41 41 0 22.6 18.3 41 41 41h552.3v367.2c0 22.6 18.3 41 41 41s41-18.3 41-41V227.9c-1.6-34.2-28.1-61.8-61.8-64.9z" /></svg>