<?xml version="1.0" standalone="no"?><!DOCTYPE svg PUBLIC "-//W3C//DTD SVG 1.1//EN" "http://www.w3.org/Graphics/SVG/1.1/DTD/svg11.dtd"><svg class="icon" width="200px" height="200.00px" viewBox="0 0 1024 1024" version="1.1" xmlns="http://www.w3.org/2000/svg"><path fill="#333333" d="M791.4 899.9h-40.9 16.2c13.8-0.8 23.4-13 26.2-26.8l-1.5 26.8zM205.7 900.2h-40.9H181c13.8-0.8 24.7-12.2 24.7-26.2v26.2zM118 900.2v-40.9 16.2c0.8 13.8 12.2 24.7 26.2 24.7H118zM118 463.6v40.9-16.2c0.8-13.8 12.2-24.7 26.2-24.7H118zM900.7 452.6v40.9l-10.5-1 1.3-4.9 1.9-7.5c6.1-19.1-5-27.5-19-27.5h26.3zM571.6 127.1c11.6 28.3 18 59.4 18 91.9 0 62.9-23.9 120.2-63.2 163.3l58.2 59C639 383.1 672.4 305 672.4 219c0-46.8-9.9-91.3-27.7-131.5l-73.1 39.6zM425.5 135.3c0.5 6 0.7 12.1 0.7 18.3 0 113-80.3 207.2-187 228.6l7 13.5 27.6 62.5C408.6 422.5 508 299.6 508 153.6c0-3.5-0.1-7-0.2-10.5l-82.3-7.8zM508.2 143.8c0.1-18.7 15.2-33.8 33.9-33.8 13.8 0 25.6 8.2 30.9 20l73.6-36.7c-18.8-38.8-58.5-65.5-104.5-65.5-63.2 0-114.6 50.5-116.1 113.3l82.2 2.7zM99.1 382c-32.9 2.4-59.3 28.1-62.7 60.7v475.9c2.3 33.2 28.4 59.9 61.4 63.1h130.4c32-4.2 56.9-30.4 59.1-63V423c0-22.6-18.3-41-41-41-22.6 0-41 18.3-41 41v476.9h-87.1v-436h27.6c22.6 0 41-18.3 41-41 0-22.6-18.3-41-41-41H99.1zM928.9 370.9H555.1c-22.6 0-41 18.3-41 41 0 22.6 18.3 41 41 41h345.3L786 899.9H381.6c-22.6 0-41 18.3-41 41 0 22.6 18.3 41 41 41H800c28.2-1.2 52.4-19.7 61.4-45.8l125.8-491.7c3.2-36.2-22.5-68.5-58.3-73.5z" /></svg>